<svg width="27" height="27" viewBox="0 0 27 27" fill="none" xmlns="http://www.w3.org/2000/svg">
<circle cx="13.5" cy="13.5" r="13.5" transform="rotate(-180 13.5 13.5)" fill="#FF8A1E"/>
<path d="M15.7624 7.88724C15.9576 7.69198 15.9576 7.3754 15.7624 7.18014C15.5671 6.98488 15.2505 6.98488 15.0553 7.18014L15.7624 7.88724ZM15.0553 7.18014L8.6913 13.5441L9.39841 14.2512L15.7624 7.88724L15.0553 7.18014Z" fill="white"/>
<path d="M15.0553 19.8199C15.2505 20.0151 15.5671 20.0151 15.7624 19.8199C15.9576 19.6246 15.9576 19.308 15.7624 19.1128L15.0553 19.8199ZM15.7624 19.1128L9.39841 12.7488L8.6913 13.4559L15.0553 19.8199L15.7624 19.1128Z" fill="white"/>
</svg>
